# xmcd CD database file
#
# Track frame offsets:
#	150
#	12821
#	24594
#	35622
#	46892
#	62946
#	76339
#	93278
#	111266
#	127719
#	140432
#	156749
#
# Disc length: 2282 seconds
#
# Revision: 0
# Processed by: cddbd v1.5.2PL0 Copyright (c) Steve Scherf et al.
# Submitted via: CDex 1.70beta2
#
DISCID=9808e80c
DTITLE=Gale, John - Cdn. - Naturally Good
DYEAR=1900
DGENRE=Country
TTITLE0=Streets of Bakersfield 
TTITLE1=Make the World Go Away
TTITLE2=Ballad of the Green Beret
TTITLE3=Little Sister
TTITLE4=Famours Last Words
TTITLE5=Can't Help Falling In Love
TTITLE6=For the Good Times
TTITLE7=The Keeper of the Stars
TTITLE8=Old Time Rock and Roll
TTITLE9=Six Days on the Road
TTITLE10=If Tomorrow Never Comes
TTITLE11=Does Fort Worth Ever Cross Your Mind
EXTD=
EXTT0=
EXTT1=
EXTT2=
EXTT3=
EXTT4=
EXTT5=
EXTT6=
EXTT7=
EXTT8=
EXTT9=
EXTT10=
EXTT11=
PLAYORDER=
